<svg width="512" height="512" viewBox="0 0 512 512" xmlns="http://www.w3.org/2000/svg">
  <defs>
    <linearGradient id="bg" x1="0%" y1="0%" x2="100%" y2="100%">
      <stop offset="0%" style="stop-color:#1e40af;stop-opacity:1" />
      <stop offset="100%" style="stop-color:#3b82f6;stop-opacity:1" />
    </linearGradient>
    <linearGradient id="book" x1="0%" y1="0%" x2="100%" y2="100%">
      <stop offset="0%" style="stop-color:#ffffff;stop-opacity:1" />
      <stop offset="100%" style="stop-color:#f8fafc;stop-opacity:1" />
    </linearGradient>
  </defs>
  
  <!-- Background -->
  <rect width="512" height="512" rx="80" fill="url(#bg)"/>
  
  <!-- Book -->
  <rect x="128" y="96" width="256" height="320" rx="16" fill="url(#book)"/>
  
  <!-- Book pages -->
  <rect x="144" y="112" width="224" height="288" rx="8" fill="#f1f5f9"/>
  
  <!-- Text lines -->
  <rect x="160" y="140" width="192" height="8" rx="4" fill="#1e40af"/>
  <rect x="160" y="160" width="160" height="8" rx="4" fill="#64748b"/>
  <rect x="160" y="180" width="176" height="8" rx="4" fill="#64748b"/>
  <rect x="160" y="200" width="144" height="8" rx="4" fill="#64748b"/>
  
  <rect x="160" y="240" width="192" height="8" rx="4" fill="#1e40af"/>
  <rect x="160" y="260" width="168" height="8" rx="4" fill="#64748b"/>
  <rect x="160" y="280" width="184" height="8" rx="4" fill="#64748b"/>
  
  <rect x="160" y="320" width="176" height="8" rx="4" fill="#1e40af"/>
  <rect x="160" y="340" width="152" height="8" rx="4" fill="#64748b"/>
  
  <!-- Star -->
  <g transform="translate(320, 160)">
    <path d="M32 0L40 24L64 24L44 40L52 64L32 48L12 64L20 40L0 24L24 24Z" fill="#fbbf24"/>
  </g>
  
  <!-- Trophy -->
  <g transform="translate(160, 360)">
    <path d="M16 0L20 4L20 8L24 8L24 12L20 12L20 16L16 16L16 12L12 12L12 8L16 8L16 4Z" fill="#fbbf24"/>
  </g>
</svg>

